<svg width="585" height="536" viewBox="0 0 585 536" fill="none" xmlns="http://www.w3.org/2000/svg">
<path d="M14.8936 1.36824C10.6269 3.10157 4.4936 8.83491 2.0936 13.5016C-3.1064 23.5016 1.82693 39.2349 11.9603 44.9682C17.1603 47.7682 18.2269 47.9016 59.2936 47.9016C87.2936 47.9016 101.694 48.4349 102.227 49.3682C102.76 50.0349 119.294 115.635 139.027 194.968C179.294 357.102 177.96 352.568 193.427 367.902C198.227 372.702 205.827 378.568 210.36 380.835C226.76 389.502 221.96 389.235 353.56 389.235C483.027 389.235 478.894 389.368 494.76 381.768C505.294 376.568 521.294 360.435 526.627 349.235C529.694 342.968 538.094 311.635 557.56 233.635C572.227 174.702 584.227 124.168 584.227 121.368C584.227 111.235 579.56 104.035 570.227 99.7682C565.16 97.3682 556.494 97.2349 364.894 97.2349H164.894L154.36 55.1016C143.027 9.50158 142.227 7.63491 132.094 2.56824C127.294 0.0349081 124.094 -0.0984253 72.6269 0.0349081C39.9603 0.0349081 16.8936 0.568241 14.8936 1.36824ZM506.894 235.768C492.494 293.368 483.56 326.702 481.694 329.768C480.094 332.302 476.494 335.768 473.827 337.502L468.894 340.568L356.227 340.968C278.494 341.235 242.094 340.968 238.627 339.902C232.76 338.168 226.227 332.968 223.56 327.902C222.094 324.968 177.56 150.168 177.56 147.235C177.56 146.835 256.627 146.568 353.427 146.568H529.294L506.894 235.768Z" fill="white"/>
<path d="M206.227 440.435C191.294 445.235 178.627 456.702 173.56 470.302C169.427 481.368 170.094 497.635 175.294 508.168C179.96 517.768 189.16 526.835 198.76 531.635C205.294 534.835 207.827 535.235 218.894 535.235C229.827 535.235 232.627 534.702 238.894 531.768C250.227 526.302 256.894 519.768 262.494 508.302C267.027 499.235 267.427 497.368 267.427 487.502C267.427 475.768 265.027 468.302 257.96 458.168C247.56 443.235 223.56 434.968 206.227 440.435Z" fill="white"/>
<path d="M474.76 440.302C461.427 444.168 449.96 453.768 443.294 466.568C439.96 473.235 439.56 475.235 439.56 487.235C439.694 498.035 440.227 501.768 442.627 506.968C446.894 516.435 457.427 526.835 467.294 531.368C474.494 534.702 477.16 535.235 487.56 535.235C498.494 535.235 500.494 534.835 508.494 530.835C528.894 520.835 539.827 498.035 534.494 476.568C529.027 454.702 512.227 440.435 490.227 439.102C484.894 438.835 478.36 439.368 474.76 440.302Z" fill="white"/>
</svg>
