<svg width="18" height="18" viewBox="0 0 18 18" fill="none" xmlns="http://www.w3.org/2000/svg">
<path d="M16.8151 15.8135L12.5871 11.5855C13.7393 10.1763 14.3058 8.37824 14.1694 6.56311C14.033 4.74799 13.2042 3.05472 11.8544 1.83354C10.5046 0.612368 8.73701 -0.0432786 6.91734 0.00221892C5.09766 0.0477165 3.36509 0.790877 2.07798 2.07798C0.790877 3.36509 0.0477165 5.09766 0.00221892 6.91734C-0.0432786 8.73701 0.612368 10.5046 1.83354 11.8544C3.05472 13.2042 4.74799 14.033 6.56311 14.1694C8.37824 14.3058 10.1763 13.7393 11.5855 12.5871L15.8135 16.8151C15.9471 16.9442 16.1261 17.0156 16.3118 17.0139C16.4975 17.0123 16.6752 16.9378 16.8065 16.8065C16.9378 16.6752 17.0123 16.4975 17.0139 16.3118C17.0156 16.1261 16.9442 15.9471 16.8151 15.8135ZM7.10601 12.7727C5.98525 12.7727 4.88965 12.4403 3.95777 11.8177C3.0259 11.195 2.29959 10.31 1.87069 9.27455C1.44179 8.2391 1.32957 7.09972 1.54822 6.00049C1.76687 4.90127 2.30657 3.89157 3.09907 3.09907C3.89157 2.30657 4.90127 1.76687 6.00049 1.54822C7.09972 1.32957 8.2391 1.44179 9.27455 1.87069C10.31 2.29959 11.195 3.0259 11.8177 3.95777C12.4403 4.88965 12.7727 5.98525 12.7727 7.10601C12.771 8.60838 12.1734 10.0487 11.1111 11.1111C10.0487 12.1734 8.60838 12.771 7.10601 12.7727Z" fill="#6E706F"/>
</svg>
